PathFileType	4	(X/Y/Z)	/Users/itak/Documents/Research/Walk-IL/dataset/trc/00217_00009.trc
DataRate	CameraRate	NumFrames	NumMarkers	Units	OrigDataRate	OrigDataStartFrame	OrigNumFrames
100.000000	100.000000	4	53	mm	100.000000	438	501
Frame#	Time	RPSI			LPSI			L3			STRN			T10			C7			CLAV			RBAK			LBAK			LSHO			LUPA			LAEL			LAOL			LWTS			LWPS			LFRA			LIFD			LHPS			LHTS			RSHO			RUPA			RAEL			RAOL			RWPS			RFRA			RIFD			RHPS			RBHD			LFHD			RFHD			LBHD			LHIP			RHIP			RASI			LASI			LKNE			LTHI			LANK			LTIP			LTOE			LMT1			LMT5			LHEE			RKNE			RTHI			RANK			RTIP			RTOE			RMT1			RMT5			RHEE			RHTS			RWTS			
		X1	Y1	Z1	X2	Y2	Z2	X3	Y3	Z3	X4	Y4	Z4	X5	Y5	Z5	X6	Y6	Z6	X7	Y7	Z7	X8	Y8	Z8	X9	Y9	Z9	X10	Y10	Z10	X11	Y11	Z11	X12	Y12	Z12	X13	Y13	Z13	X14	Y14	Z14	X15	Y15	Z15	X16	Y16	Z16	X17	Y17	Z17	X18	Y18	Z18	X19	Y19	Z19	X20	Y20	Z20	X21	Y21	Z21	X22	Y22	Z22	X23	Y23	Z23	X24	Y24	Z24	X25	Y25	Z25	X26	Y26	Z26	X27	Y27	Z27	X28	Y28	Z28	X29	Y29	Z29	X30	Y30	Z30	X31	Y31	Z31	X32	Y32	Z32	X33	Y33	Z33	X34	Y34	Z34	X35	Y35	Z35	X36	Y36	Z36	X37	Y37	Z37	X38	Y38	Z38	X39	Y39	Z39	X40	Y40	Z40	X41	Y41	Z41	X42	Y42	Z42	X43	Y43	Z43	X44	Y44	Z44	X45	Y45	Z45	X46	Y46	Z46	X47	Y47	Z47	X48	Y48	Z48	X49	Y49	Z49	X50	Y50	Z50	X51	Y51	Z51	X52	Y52	Z52	X53	Y53	Z53	

439	4.38	753.4024047851562	1033.91455078125	-69.45714569091797	750.0179443359375	1040.389892578125	-189.7816925048828	741.4336547851562	1120.08984375	-140.0771484375	986.077392578125	1312.234252929688	-159.2053375244141	739.4802856445312	1247.777099609375	-127.4952163696289	792.4998168945312	1509.697998046875	-128.9540100097656	957.1105346679688	1428.702270507812	-152.2140197753906	728.2459716796875	1368.473999023438	-48.05281066894531	758.33447265625	1473.552124023438	-234.0365753173828	837.2811279296875	1477.144287109375	-303.6977844238281	785.181884765625	1361.014282226562	-374.1174621582031	768.1056518554688	1154.156860351562	-406.7602233886719	709.7562866210938	1144.244506835938	-342.0671997070312	828.8644409179688	903.843994140625	-383.5480041503906	781.1461791992188	898.9909057617188	-453.2559814453125	769.2890014648438	1046.637451171875	-429.1641235351562	787.2431030273438	711.436279296875	-399.6650390625	777.8572998046875	808.8863525390625	-455.1566467285156	825.4808959960938	814.3859252929688	-408.3813171386719	874.599853515625	1465.168823242188	28.35614204406738	870.0704345703125	1400.05859375	96.94622039794922	882.8387451171875	1118.976684570312	137.5642700195312	833.7100219726562	1107.292114257812	58.62299728393555	1001.247009277344	903.6942138671875	136.3049163818359	921.3907470703125	1054.474243164062	143.7621765136719	1087.426391601562	741.3397216796875	49.45375823974609	1059.62841796875	805.8348388671875	126.6808166503906	823.1265258789062	1659.895385742188	-83.12635040283203	1012.222106933594	1724.064086914062	-191.3519744873047	1019.98193359375	1719.225708007812	-91.78395843505859	856.3438110351562	1676.029907226562	-218.1356048583984	849.5182495117188	982.7696533203125	-333.5040283203125	854.4429931640625	995.7086791992188	34.65169143676758	948.96337890625	1042.700317382812	-5.36136531829834	950.0990600585938	1032.880615234375	-288.2377624511719	976.098876953125	505.5478515625	-295.1611938476562	945.1642456054688	647.4899291992188	-320.8064880371094	781.2442626953125	53.32761383056641	-287.1087341308594	873.2416381835938	296.9304504394531	-301.3429870605469	996.4403686523438	54.18788146972656	-264.5197448730469	936.7272338867188	48.05305099487305	-212.6122436523438	902.3828125	41.78914642333984	-321.1051025390625	727.8558349609375	68.83700561523438	-229.0695037841797	949.3252563476562	511.1228332519531	-29.01663017272949	937.1431884765625	777.0664672851562	27.20500183105469	863.6100463867188	28.83125686645508	-66.88709259033203	958.0467529296875	389.4607543945312	-52.61720275878906	1075.8056640625	32.66811370849609	-118.6554794311523	1017.120727539062	33.04122543334961	-156.4093780517578	973.5007934570312	27.10005378723145	-42.25199508666992	800.5081787109375	31.41848945617676	-123.8786392211914	1101.796997070312	817.283203125	68.90922546386719	1037.518188476562	927.3492431640625	64.08291625976562	
440	4.39	755.5260009765625	1034.259643554688	-69.38924407958984	751.8753051757812	1040.845825195312	-189.7164306640625	743.501953125	1120.609619140625	-139.9627380371094	988.4104614257812	1312.373657226562	-159.6056213378906	741.6983642578125	1248.307983398438	-127.384407043457	795.17626953125	1510.111572265625	-128.9980926513672	959.6394653320312	1428.8955078125	-152.5659942626953	730.8552856445312	1369.02490234375	-47.92817687988281	760.78857421875	1474.063842773438	-234.0379486083984	839.5692749023438	1477.49658203125	-303.8005981445312	787.3947143554688	1361.4033203125	-374.1339721679688	770.470458984375	1154.525268554688	-406.9940795898438	712.189453125	1144.480346679688	-342.2632446289062	832.2229614257812	904.4862670898438	-383.8207092285156	784.4075317382812	899.3856811523438	-453.43310546875	771.9630126953125	1046.981567382812	-429.3881225585938	791.5430908203125	711.8510131835938	-399.7150268554688	781.5182495117188	809.26611328125	-455.2867736816406	829.3904418945312	814.6224365234375	-408.6947631835938	877.5432739257812	1465.447387695312	28.1628532409668	873.0929565429688	1400.31201171875	96.74980926513672	885.4835205078125	1119.19482421875	137.1334991455078	836.3396606445312	1107.597290039062	58.18191528320312	1003.522216796875	903.7120361328125	135.9370727539062	923.93212890625	1054.644653320312	143.3402557373047	1089.607177734375	741.2442626953125	49.22103500366211	1061.800415039062	805.7891845703125	126.4057159423828	825.8800659179688	1660.129516601562	-83.21396636962891	1014.843444824219	1724.349975585938	-191.5949096679688	1022.720092773438	1719.457397460938	-92.05928802490234	858.975830078125	1676.336059570312	-218.2792663574219	851.1968994140625	983.3815307617188	-333.7154541015625	856.727783203125	995.9100952148438	34.53411483764648	951.1389770507812	1042.896362304688	-5.680581092834473	951.85009765625	1033.334350585938	-288.5061645507812	978.0465087890625	506.1297607421875	-295.0595703125	946.8825073242188	648.03466796875	-321.0830078125	791.7357177734375	50.43607330322266	-288.2628479003906	879.1111450195312	295.7096252441406	-302.0061340332031	1006.697082519531	55.25881576538086	-263.2633666992188	946.519287109375	48.03972625732422	-212.0753173828125	913.4989013671875	41.20418167114258	-320.9258422851562	737.4277954101562	64.96623229980469	-230.8470153808594	949.83251953125	511.0592956542969	-29.30477523803711	938.9563598632812	777.16162109375	26.76444625854492	863.5831298828125	28.79560089111328	-66.86463165283203	958.1398315429688	389.4508972167969	-52.84137725830078	1075.727905273438	32.66936492919922	-118.6642837524414	1017.096496582031	33.05660629272461	-156.3968811035156	973.499755859375	27.07593727111816	-42.23651885986328	800.32763671875	31.41895866394043	-123.9006652832031	1104.036010742188	817.1725463867188	68.6790771484375	1039.918823242188	927.3165893554688	63.76169586181641	
441	4.4	757.5609741210938	1034.585327148438	-69.38172912597656	753.7269897460938	1041.276733398438	-189.7160797119141	745.4925537109375	1121.117797851562	-139.8927154541016	990.674560546875	1312.503662109375	-160.0106964111328	743.8477783203125	1248.82763671875	-127.3286972045898	797.7747192382812	1510.511108398438	-129.0850830078125	962.094482421875	1429.080688476562	-152.9386444091797	733.3900146484375	1369.550537109375	-47.84645462036133	763.1607666015625	1474.546997070312	-234.0771942138672	841.7969970703125	1477.825805664062	-303.939453125	789.5698852539062	1361.761352539062	-374.1961364746094	772.8941040039062	1154.859130859375	-407.2880554199219	714.66015625	1144.639404296875	-342.5415649414062	835.8560791015625	905.1614990234375	-384.1162719726562	787.9746704101562	899.7481689453125	-453.6458129882812	774.7954711914062	1047.281494140625	-429.6686706542969	796.4108276367188	712.2312622070312	-399.81640625	785.6023559570312	809.6171875	-455.4615478515625	833.7227172851562	814.8303833007812	-409.0525207519531	880.38623046875	1465.726196289062	27.93393707275391	876.0029907226562	1400.568969726562	96.51930999755859	887.9960327148438	1119.418701171875	136.6748657226562	838.7979125976562	1107.932250976562	57.71895217895508	1005.563842773438	903.6885986328125	135.5155944824219	926.3195190429688	1054.807495117188	142.8778076171875	1091.391845703125	741.0323486328125	48.9118766784668	1063.68017578125	805.661376953125	126.0633850097656	828.5404052734375	1660.347900390625	-83.33034515380859	1017.387634277344	1724.62255859375	-191.8691864013672	1025.370361328125	1719.678100585938	-92.36756896972656	861.5283813476562	1676.630859375	-218.4702453613281	852.8857421875	983.9913940429688	-333.9519348144531	858.8870849609375	996.131591796875	34.37751388549805	953.2133178710938	1043.090576171875	-5.98652172088623	953.5711059570312	1033.749145507812	-288.7386779785156	979.8048706054688	506.6654968261719	-295.0742797851562	948.4761352539062	648.5501098632812	-321.457763671875	801.7141723632812	47.81951141357422	-289.2820129394531	884.6636962890625	294.590576171875	-302.6485290527344	1016.336181640625	56.37224960327148	-261.9492492675781	955.7438354492188	48.13069152832031	-211.4552612304688	923.9882202148438	40.73522567749023	-320.6405639648438	746.545166015625	61.43604278564453	-232.4632263183594	950.2652587890625	511.0014343261719	-29.55624961853027	940.6627807617188	777.249755859375	26.35259056091309	863.5603637695312	28.7662525177002	-66.84107208251953	958.195068359375	389.4490966796875	-53.03849029541016	1075.659301757812	32.67135620117188	-118.6680374145508	1017.07275390625	33.06354141235352	-156.3819580078125	973.4990234375	27.05831718444824	-42.22727203369141	800.1737670898438	31.40823173522949	-123.9364013671875	1105.94482421875	816.93701171875	68.34358215332031	1042.055053710938	927.2029418945312	63.35845184326172	
442	4.41	759.5039672851562	1034.892211914062	-69.44081115722656	755.5781860351562	1041.684814453125	-189.7807769775391	747.4285278320312	1121.598754882812	-139.8807373046875	992.870849609375	1312.622192382812	-160.4193878173828	745.95166015625	1249.320068359375	-127.3223190307617	800.2933959960938	1510.891723632812	-129.2177429199219	964.4781494140625	1429.254028320312	-153.3284759521484	735.8543701171875	1370.044189453125	-47.81206512451172	765.4585571289062	1474.993774414062	-234.1603546142578	843.973388671875	1478.128784179688	-304.1158447265625	791.7138671875	1362.086059570312	-374.307373046875	775.3731079101562	1155.157104492188	-407.6400146484375	717.1641235351562	1144.720703125	-342.8965759277344	839.7532958984375	905.8734741210938	-384.4403686523438	791.831787109375	900.0864868164062	-453.8973999023438	777.7799682617188	1047.541381835938	-430.0055541992188	801.8056030273438	712.5972900390625	-399.9837341308594	790.0963745117188	809.9461669921875	-455.6824645996094	838.4647216796875	815.0164184570312	-409.4561157226562	883.1278686523438	1466.0029296875	27.67033386230469	878.7952270507812	1400.830688476562	96.25466918945312	890.3781127929688	1119.646728515625	136.1949157714844	841.0970458984375	1108.28955078125	57.24810409545898	1007.38330078125	903.6282958984375	135.0428009033203	928.5582885742188	1054.962646484375	142.3806610107422	1092.782104492188	740.70751953125	48.52081680297852	1065.269287109375	805.4547729492188	125.6467208862305	831.1041259765625	1660.554443359375	-83.47400665283203	1019.854736328125	1724.879516601562	-192.1781005859375	1027.927001953125	1719.889038085938	-92.70841217041016	864.0017700195312	1676.906616210938	-218.7097625732422	854.5870971679688	984.57958984375	-334.2100830078125	860.9276123046875	996.37353515625	34.18305206298828	955.1917114257812	1043.2763671875	-6.283002376556396	955.2807006835938	1034.13037109375	-288.9530334472656	981.3779907226562	507.1450805664062	-295.1986389160156	949.9503784179688	649.0263671875	-321.9220275878906	811.1432495117188	45.44930648803711	-290.1596069335938	889.8770751953125	293.5577087402344	-303.2643432617188	1025.34765625	57.4971923828125	-260.5928955078125	964.3784790039062	48.30535125732422	-210.7618560791016	933.8245849609375	40.35114669799805	-320.2515563964844	755.1689453125	58.23115921020508	-233.9138031005859	950.6207885742188	510.9468383789062	-29.77153778076172	942.2562255859375	777.3184814453125	25.97068786621094	863.5424194335938	28.74411773681641	-66.81826782226562	958.2183837890625	389.4535522460938	-53.20707321166992	1075.60107421875	32.67556762695312	-118.6676559448242	1017.048522949219	33.05865478515625	-156.3668518066406	973.4983520507812	27.04607582092285	-42.22337341308594	800.0687255859375	31.38462448120117	-123.9784164428711	1107.52685546875	816.57958984375	67.89535522460938	1043.931518554688	927.0122680664062	62.87224578857422	
